<?xml version="1.0" standalone="no"?>
<!DOCTYPE svg PUBLIC "-//W3C//DTD SVG 20010904//EN"
 "http://www.w3.org/TR/2001/REC-SVG-20010904/DTD/svg10.dtd">
<svg version="1.0" xmlns="http://www.w3.org/2000/svg"
 width="1707.000000pt" height="1280.000000pt" viewBox="0 0 1707.000000 1280.000000"
 preserveAspectRatio="xMidYMid meet">
<metadata>
Created by potrace 1.16, written by Peter Selinger 2001-2019
</metadata>
<g transform="translate(0.000000,1280.000000) scale(0.100000,-0.100000)"
fill="#24c5db" stroke="none">
<path d="M1395 12793 c-165 -20 -379 -88 -535 -169 -426 -222 -724 -613 -832
-1096 l-23 -103 0 -5025 0 -5025 23 -103 c71 -316 218 -586 438 -806 215 -215
464 -353 784 -434 l105 -27 7859 -2 c6790 -3 7857 -1 7853 11 -3 8 -841 1446
-1862 3196 -1098 1880 -1855 3189 -1852 3198 2 10 838 1446 1857 3192 1019
1746 1855 3180 1857 3187 4 11 -1455 13 -7818 12 -4303 -1 -7837 -4 -7854 -6z"/>
</g>
</svg>
